<svg width="24" height="32" viewBox="0 0 24 32" fill="none" xmlns="http://www.w3.org/2000/svg">
<path fill-rule="evenodd" clip-rule="evenodd" d="M4.96655 14.0518C4.96655 11.5443 5.73112 9.33189 6.8956 7.78008C8.05972 6.22876 9.55365 5.409 11.0778 5.409C12.6019 5.409 14.0959 6.22876 15.26 7.78008C16.4245 9.33189 17.189 11.5443 17.189 14.0518C17.189 16.5594 16.4245 18.7718 15.26 20.3236C14.0959 21.8749 12.6019 22.6947 11.0778 22.6947C9.55365 22.6947 8.05972 21.8749 6.8956 20.3236C5.73112 18.7718 4.96655 16.5594 4.96655 14.0518ZM11.0778 2.409C8.39837 2.409 6.08668 3.85979 4.49607 5.97946C2.90582 8.09864 1.96655 10.9576 1.96655 14.0518C1.96655 17.1461 2.90582 20.0051 4.49607 22.1242C6.08668 24.2439 8.39837 25.6947 11.0778 25.6947C12.8432 25.6947 14.4489 25.0649 15.7939 24.029L19.2802 28.6748C19.7774 29.3374 20.7176 29.4715 21.3802 28.9743C22.0429 28.4771 22.1769 27.5368 21.6797 26.8742L18.0979 22.1011C18.0267 22.0062 17.9465 21.9222 17.8593 21.8493C19.3281 19.761 20.189 17.0142 20.189 14.0518C20.189 10.9576 19.2498 8.09864 17.6595 5.97946C16.0689 3.85979 13.7572 2.409 11.0778 2.409Z" fill="#8B8B8B" fill-opacity="0.5"/>
</svg>
