<svg width="17" height="17" viewBox="0 0 17 17" fill="none" xmlns="http://www.w3.org/2000/svg">
<g clip-path="url(#clip0_8_176)">
<path d="M5.6667 4.08545C5.63906 4.05803 5.63905 4.05803 5.61141 4.03061C5.4732 3.89351 5.41792 3.83867 5.41792 3.72899C5.41792 3.5919 5.4732 3.56448 5.61141 3.42738C5.6667 3.37254 5.74962 3.29028 5.80491 3.23545C5.88784 3.12577 5.88784 2.98867 5.77727 2.90641C5.6667 2.82415 5.52849 2.82415 5.44556 2.93383C5.39027 2.98867 5.33499 3.04351 5.27971 3.09835C5.11385 3.26286 4.948 3.42738 4.948 3.75641C4.948 4.08545 5.11385 4.24996 5.27971 4.41448C5.30735 4.4419 5.30735 4.4419 5.33499 4.46932C5.50084 4.60641 5.61141 4.71609 5.61141 4.96286C5.61141 5.23706 5.4732 5.40157 5.30735 5.56609C5.27971 5.59351 5.27971 5.59351 5.25206 5.62093C5.16914 5.73061 5.16914 5.8677 5.27971 5.94996C5.33499 5.97738 5.39027 6.0048 5.44556 6.0048C5.50084 6.0048 5.58377 5.97738 5.63905 5.92254C5.6667 5.89512 5.6667 5.89512 5.69434 5.8677C5.88784 5.67577 6.13662 5.40157 6.13662 4.93545C6.10897 4.46932 5.86019 4.24996 5.6667 4.08545Z" fill="#A9A9A9" stroke="#A9A9A9" stroke-width="0.2"/>
<path d="M9.03901 3.01611C9.01137 2.98869 9.01137 2.98869 8.98373 2.96127C8.84552 2.82417 8.79023 2.76934 8.79023 2.65966C8.79023 2.52256 8.84552 2.49514 8.98373 2.35804C9.03901 2.30321 9.12194 2.22095 9.17722 2.16611C9.26015 2.05643 9.26015 1.91934 9.14958 1.83708C9.03901 1.75482 8.9008 1.75482 8.81787 1.8645C8.76259 1.91934 8.7073 1.97417 8.65202 2.02901C8.48617 2.19353 8.32031 2.35804 8.32031 2.68708C8.32031 3.01611 8.48617 3.18063 8.65202 3.34514C8.67966 3.37256 8.67966 3.37256 8.7073 3.39998C8.87316 3.53708 8.98373 3.64675 8.98373 3.89353C8.98373 4.16772 8.84552 4.33224 8.67966 4.49675C8.65202 4.52417 8.65202 4.52417 8.62438 4.55159C8.54145 4.66127 8.54145 4.79837 8.65202 4.88063C8.7073 4.90804 8.76259 4.93546 8.81787 4.93546C8.87316 4.93546 8.95608 4.90804 9.01137 4.85321C9.03901 4.82579 9.03901 4.82579 9.06665 4.79837C9.26015 4.60643 9.50893 4.33224 9.50893 3.86611C9.48129 3.39998 9.23251 3.18063 9.03901 3.01611Z" fill="#A9A9A9" stroke="#A9A9A9" stroke-width="0.2"/>
<path d="M12.439 4.08545C12.4114 4.05803 12.4114 4.05803 12.3838 4.03061C12.2455 3.89351 12.1903 3.83867 12.1903 3.72899C12.1903 3.5919 12.2455 3.56448 12.3838 3.42738C12.439 3.37254 12.522 3.29028 12.5772 3.23545C12.6602 3.12577 12.6602 2.98867 12.5496 2.90641C12.439 2.82415 12.3008 2.82415 12.2179 2.93383C12.1626 2.98867 12.1073 3.04351 12.052 3.09835C11.8862 3.26286 11.7203 3.42738 11.7203 3.75641C11.7203 4.08545 11.8862 4.24996 12.052 4.41448C12.0797 4.4419 12.0797 4.4419 12.1073 4.46932C12.2732 4.60641 12.3838 4.71609 12.3838 4.96286C12.3838 5.23706 12.2455 5.40157 12.0797 5.56609C12.052 5.59351 12.052 5.59351 12.0244 5.62093C11.9415 5.73061 11.9415 5.8677 12.052 5.94996C12.1073 5.97738 12.1626 6.0048 12.2179 6.0048C12.2732 6.0048 12.3561 5.97738 12.4114 5.92254C12.439 5.89512 12.439 5.89512 12.4667 5.8677C12.6602 5.67577 12.909 5.40157 12.909 4.93545C12.8537 4.46932 12.6049 4.24996 12.439 4.08545Z" fill="#A9A9A9" stroke="#A9A9A9" stroke-width="0.2"/>
<path d="M16.8065 14.0661H0.995118C0.856907 14.0661 0.746338 14.1758 0.746338 14.3129V14.8887C0.746338 15.5193 1.27154 16.0403 1.90731 16.0403H15.8943C16.5301 16.0403 17.0553 15.5193 17.0553 14.8887V14.3129C17.0553 14.1758 16.9447 14.0661 16.8065 14.0661ZM16.5577 14.8887C16.5577 15.2726 16.2537 15.5742 15.8667 15.5742H1.90731C1.52032 15.5742 1.21626 15.2726 1.21626 14.8887V14.5596H16.5577V14.8887Z" fill="#A9A9A9" stroke="#A9A9A9" stroke-width="0.2"/>
<path d="M13.2959 8.91127C12.3285 7.97901 11.0846 7.40321 9.78537 7.21127L10.2553 6.74514C10.3935 6.60804 10.4488 6.38869 10.3659 6.19675C10.2829 6.00482 10.1171 5.89514 9.89594 5.89514H7.90569C7.7122 5.89514 7.5187 6.00482 7.43577 6.19675C7.35285 6.38869 7.40813 6.58063 7.54634 6.74514L8.01626 7.21127C6.68943 7.40321 5.47317 7.97901 4.47805 8.91127C3.28943 10.0355 2.59838 11.5709 2.54309 13.1887C2.54309 13.3258 2.65366 13.4355 2.76423 13.4355C2.90244 13.4355 3.01301 13.3258 3.01301 13.2161C3.06829 11.708 3.70407 10.3097 4.80976 9.26772C5.83252 8.28063 7.15935 7.73224 8.54147 7.64998C8.56911 7.64998 8.59675 7.64998 8.62439 7.64998C8.65203 7.64998 8.67968 7.64998 8.70732 7.64998C8.73496 7.64998 8.73496 7.64998 8.7626 7.64998C8.79025 7.64998 8.84553 7.64998 8.87317 7.64998C8.90081 7.64998 8.9561 7.64998 8.98374 7.64998C9.01138 7.64998 9.01138 7.64998 9.03903 7.64998C9.06667 7.64998 9.09431 7.64998 9.12195 7.64998C9.14959 7.64998 9.17724 7.64998 9.20488 7.64998C10.6146 7.73224 11.9138 8.28063 12.9366 9.26772C14.0423 10.3097 14.6781 11.708 14.7333 13.2161C14.7333 13.3532 14.8439 13.4629 14.9821 13.4355C15.1203 13.4355 15.2309 13.3258 15.2033 13.1887C15.1756 11.5435 14.4846 10.0355 13.2959 8.91127ZM9.14959 7.15643H9.12195C9.09431 7.15643 9.06667 7.15643 9.03903 7.15643C8.98374 7.15643 8.9561 7.15643 8.90081 7.15643C8.84553 7.15643 8.81789 7.15643 8.7626 7.15643C8.73496 7.15643 8.70732 7.15643 8.67968 7.15643H8.65203L7.90569 6.41611H9.89594L9.14959 7.15643Z" fill="#A9A9A9" stroke="#A9A9A9" stroke-width="0.2"/>
</g>
<defs>
<clipPath id="clip0_8_176">
<rect width="17" height="17" fill="white"/>
</clipPath>
</defs>
</svg>
